<svg id="visual" viewBox="0 0 540 960" width="540" height="960" xmlns="http://www.w3.org/2000/svg" xmlns:xlink="http://www.w3.org/1999/xlink" version="1.1"><rect x="0" y="0" width="540" height="960" fill="#324B51"></rect><path d="M0 526L7.5 530C15 534 30 542 45 553.5C60 565 75 580 90 590C105 600 120 605 135 611C150 617 165 624 180 613C195 602 210 573 225 558.5C240 544 255 544 270 547.3C285 550.7 300 557.3 315 567.3C330 577.3 345 590.7 360 597.2C375 603.7 390 603.3 405 601.8C420 600.3 435 597.7 450 590C465 582.3 480 569.7 495 559.5C510 549.3 525 541.7 532.5 537.8L540 534L540 961L532.5 961C525 961 510 961 495 961C480 961 465 961 450 961C435 961 420 961 405 961C390 961 375 961 360 961C345 961 330 961 315 961C300 961 285 961 270 961C255 961 240 961 225 961C210 961 195 961 180 961C165 961 150 961 135 961C120 961 105 961 90 961C75 961 60 961 45 961C30 961 15 961 7.5 961L0 961Z" fill="#c3a0e4"></path><path d="M0 649L7.5 648.5C15 648 30 647 45 653.2C60 659.3 75 672.7 90 682.5C105 692.3 120 698.7 135 696C150 693.3 165 681.7 180 674.7C195 667.7 210 665.3 225 662.8C240 660.3 255 657.7 270 665.8C285 674 300 693 315 688.5C330 684 345 656 360 656.3C375 656.7 390 685.3 405 686.5C420 687.7 435 661.3 450 656C465 650.7 480 666.3 495 672.3C510 678.3 525 674.7 532.5 672.8L540 671L540 961L532.5 961C525 961 510 961 495 961C480 961 465 961 450 961C435 961 420 961 405 961C390 961 375 961 360 961C345 961 330 961 315 961C300 961 285 961 270 961C255 961 240 961 225 961C210 961 195 961 180 961C165 961 150 961 135 961C120 961 105 961 90 961C75 961 60 961 45 961C30 961 15 961 7.5 961L0 961Z" fill="#b18fd1"></path><path d="M0 715L7.5 719C15 723 30 731 45 736.5C60 742 75 745 90 749C105 753 120 758 135 764.7C150 771.3 165 779.7 180 777.5C195 775.3 210 762.7 225 756.8C240 751 255 752 270 758.5C285 765 300 777 315 781C330 785 345 781 360 771C375 761 390 745 405 736.7C420 728.3 435 727.7 450 728.3C465 729 480 731 495 741.5C510 752 525 771 532.5 780.5L540 790L540 961L532.5 961C525 961 510 961 495 961C480 961 465 961 450 961C435 961 420 961 405 961C390 961 375 961 360 961C345 961 330 961 315 961C300 961 285 961 270 961C255 961 240 961 225 961C210 961 195 961 180 961C165 961 150 961 135 961C120 961 105 961 90 961C75 961 60 961 45 961C30 961 15 961 7.5 961L0 961Z" fill="#9f7dbf"></path><path d="M0 817L7.5 819.7C15 822.3 30 827.7 45 828.7C60 829.7 75 826.3 90 823C105 819.7 120 816.3 135 815.3C150 814.3 165 815.7 180 822C195 828.3 210 839.7 225 847.5C240 855.3 255 859.7 270 860C285 860.3 300 856.7 315 857.7C330 858.7 345 864.3 360 863.2C375 862 390 854 405 853.2C420 852.3 435 858.7 450 856C465 853.3 480 841.7 495 833C510 824.3 525 818.7 532.5 815.8L540 813L540 961L532.5 961C525 961 510 961 495 961C480 961 465 961 450 961C435 961 420 961 405 961C390 961 375 961 360 961C345 961 330 961 315 961C300 961 285 961 270 961C255 961 240 961 225 961C210 961 195 961 180 961C165 961 150 961 135 961C120 961 105 961 90 961C75 961 60 961 45 961C30 961 15 961 7.5 961L0 961Z" fill="#8d6cac"></path></svg>